name C:\Users\tom_v\My Drive\PostDoc\MusculoskeletalSpecialization\ResultsSprinting\Case_1\motion.mot
datacolumns 32
datarows 7
range 0.00000000 0.02818685
endheader 
time	pelvis_tilt	pelvis_list	pelvis_rotation	pelvis_tx	pelvis_ty	pelvis_tz	hip_flexion_l	hip_adduction_l	hip_rotation_l	hip_flexion_r	hip_adduction_r	hip_rotation_r	knee_angle_l	knee_angle_r	ankle_angle_l	ankle_angle_r	subtalar_angle_l	subtalar_angle_r	mtp_angle_l	mtp_angle_r	lumbar_extension	lumbar_bending	lumbar_rotation	arm_flex_l	arm_add_l	arm_rot_l	arm_flex_r	arm_add_r	arm_rot_r	elbow_flex_l	elbow_flex_r	
          0.00000000	         -5.74846481	         -5.00816323	          4.58286651	          0.00000000	          0.96414780	          0.00411820	         11.66879296	        -11.48191115	         -4.60729127	         27.29166241	          4.53965094	         -9.24489416	        -63.39722333	         -8.62789741	         -8.24356774	          7.88585313	          8.16086546	         -0.33798165	         -1.24961365	          6.15221096	        -13.39236512	          7.78811283	        -13.06911113	         18.74473922	        -20.29588370	          7.07279265	         14.31909902	         -8.74868726	         -2.58231029	         34.86473237	          3.34384600	
          0.00469781	         -6.37593054	         -4.36932583	          2.89866474	          0.03896387	          0.96074583	          0.00319909	         13.43715468	        -10.21763982	         -4.65329211	         25.85009255	          4.15741818	         -8.63832766	        -64.45145788	         -7.32669088	         -7.19470001	          4.73056090	          8.75975571	          0.63865120	         -1.85136880	          6.45686373	        -12.47331423	          7.27096837	        -10.64388625	         18.86304274	        -16.82088287	          6.89099485	         16.23966055	        -10.42235665	         -6.33416883	         27.28834028	          7.27681400	
          0.00939562	         -7.00706307	         -3.64317456	          1.32057510	          0.07818314	          0.95682972	          0.00212316	         15.31688270	         -8.93442758	         -4.65683770	         24.39500161	          3.57657605	         -7.99660569	        -65.50213231	         -6.13035104	         -6.16573394	          1.73894116	          9.33636021	          1.29424079	         -2.01092904	          6.56120912	        -11.50351223	          6.73940312	         -8.40029964	         17.83725055	        -13.67184219	          4.52220747	         17.45774628	        -12.27493616	         -9.89030006	         21.76200458	         13.07079504	
          0.01409343	         -7.62642011	         -2.81941804	         -0.15356187	          0.11765765	          0.95240699	          0.00096570	         17.28295620	         -7.63187984	         -4.64688189	         22.92545835	          2.80012849	         -7.37978357	        -66.54639536	         -5.04376172	         -5.08736238	         -1.25435158	          9.89823324	          1.43854431	         -1.75929861	          6.72979108	        -10.49902746	          6.17742167	         -6.34836528	         15.69077774	        -11.00335984	          0.24338476	         18.08798284	        -14.22220254	        -12.42572542	         18.43434545	         20.53035585	
          0.01879124	         -8.21278401	         -1.89420767	         -1.54003851	          0.15736530	          0.94750660	         -0.00018834	         19.30427815	         -6.31906874	         -4.66341644	         21.44834393	          1.83958162	         -6.92213979	        -67.57889741	         -4.14757147	         -3.90777601	         -4.72444193	         10.43150702	          1.24342011	         -1.47546841	          7.29447108	         -9.48818628	          5.56750212	         -4.48545121	         12.44392185	         -8.89544575	         -4.92216201	         18.35983353	        -16.38602837	        -13.19992626	         17.30316974	         29.20174385	
          0.02348904	         -8.74407270	         -1.03816838	         -2.98123707	          0.19709633	          0.94241722	         -0.00097844	         21.34451481	         -5.27323203	         -4.83191585	         20.12049647	          1.03033793	         -6.47172025	        -68.60420635	         -4.40514709	         -2.69612663	         -7.20540969	         10.96906842	          1.69946019	         -1.21493571	          8.17559456	         -8.55467006	          5.05814461	         -2.66642320	          8.07528133	         -7.34994174	         -9.48706950	         18.62210117	        -19.03126817	        -11.89746227	         18.37142045	         38.50032339	
          0.02818685	         -9.26306418	         -0.80986832	         -4.77440406	          0.23632241	          0.93804718	         -0.00081950	         23.41663019	         -5.27685558	         -5.25884550	         19.13338321	          1.25518073	         -3.36868416	        -69.64473620	         -6.70745809	         -1.66687202	         -1.64486729	         11.59454099	          1.03196998	         -0.12042835	          9.51712455	         -7.82447140	          5.22869471	         -0.54483324	          2.58546036	         -6.24328624	        -12.33594378	         19.32095954	        -22.48005701	         -8.48925664	         21.63885616	         47.89560969	
